<mxfile host="app.diagrams.net" agent="Mozilla/5.0 (Windows NT 10.0; Win64; x64) AppleWebKit/537.36 (KHTML, like Gecko) Chrome/133.0.0.0 Safari/537.36 Edg/133.0.0.0" version="26.1.0">
  <diagram name="Page-1" id="Ovn1xknwaMBlG04rL1de">
    <mxGraphModel dx="1141" dy="597" grid="1" gridSize="10" guides="1" tooltips="1" connect="1" arrows="1" fold="1" page="1" pageScale="1" pageWidth="1700" pageHeight="1100" math="0" shadow="0">
      <root>
        <mxCell id="0" />
        <mxCell id="1" parent="0" />
        <mxCell id="sP8sjLfEsEtdyF7ky87n-4" style="edgeStyle=orthogonalEdgeStyle;rounded=0;orthogonalLoop=1;jettySize=auto;html=1;exitX=1;exitY=0.5;exitDx=0;exitDy=0;entryX=0;entryY=0.5;entryDx=0;entryDy=0;" edge="1" parent="1" source="sP8sjLfEsEtdyF7ky87n-1" target="sP8sjLfEsEtdyF7ky87n-2">
          <mxGeometry relative="1" as="geometry" />
        </mxCell>
        <mxCell id="sP8sjLfEsEtdyF7ky87n-1" value="Battery" style="rounded=1;whiteSpace=wrap;html=1;" vertex="1" parent="1">
          <mxGeometry x="40" y="440" width="120" height="60" as="geometry" />
        </mxCell>
        <mxCell id="sP8sjLfEsEtdyF7ky87n-2" value="U9&lt;div&gt;1.75V&lt;br&gt;&lt;div&gt;&lt;br&gt;&lt;/div&gt;&lt;/div&gt;" style="rounded=1;whiteSpace=wrap;html=1;" vertex="1" parent="1">
          <mxGeometry x="240" y="340" width="80" height="60" as="geometry" />
        </mxCell>
        <mxCell id="sP8sjLfEsEtdyF7ky87n-3" value="" style="endArrow=classic;html=1;rounded=0;exitX=1;exitY=0.5;exitDx=0;exitDy=0;" edge="1" parent="1" source="sP8sjLfEsEtdyF7ky87n-2">
          <mxGeometry width="50" height="50" relative="1" as="geometry">
            <mxPoint x="610" y="680" as="sourcePoint" />
            <mxPoint x="400" y="370" as="targetPoint" />
          </mxGeometry>
        </mxCell>
        <mxCell id="sP8sjLfEsEtdyF7ky87n-5" value="VCC_LTCH" style="edgeLabel;html=1;align=center;verticalAlign=middle;resizable=0;points=[];" vertex="1" connectable="0" parent="sP8sjLfEsEtdyF7ky87n-3">
          <mxGeometry x="0.315" y="-2" relative="1" as="geometry">
            <mxPoint x="-13" y="-2" as="offset" />
          </mxGeometry>
        </mxCell>
        <mxCell id="sP8sjLfEsEtdyF7ky87n-10" style="edgeStyle=orthogonalEdgeStyle;rounded=0;orthogonalLoop=1;jettySize=auto;html=1;exitX=1;exitY=0.5;exitDx=0;exitDy=0;" edge="1" parent="1" source="sP8sjLfEsEtdyF7ky87n-6">
          <mxGeometry relative="1" as="geometry">
            <mxPoint x="450" y="470.20000000000005" as="targetPoint" />
          </mxGeometry>
        </mxCell>
        <mxCell id="sP8sjLfEsEtdyF7ky87n-11" value="VLOAD" style="edgeLabel;html=1;align=center;verticalAlign=middle;resizable=0;points=[];" vertex="1" connectable="0" parent="sP8sjLfEsEtdyF7ky87n-10">
          <mxGeometry x="0.035" y="2" relative="1" as="geometry">
            <mxPoint as="offset" />
          </mxGeometry>
        </mxCell>
        <mxCell id="sP8sjLfEsEtdyF7ky87n-6" value="&lt;div&gt;U10&lt;/div&gt;&lt;div&gt;Load Switch&lt;br&gt;&lt;div&gt;&lt;br&gt;&lt;/div&gt;&lt;/div&gt;" style="rounded=1;whiteSpace=wrap;html=1;" vertex="1" parent="1">
          <mxGeometry x="260" y="440" width="80" height="60" as="geometry" />
        </mxCell>
        <mxCell id="sP8sjLfEsEtdyF7ky87n-7" value="" style="endArrow=classic;html=1;rounded=0;entryX=0;entryY=0.5;entryDx=0;entryDy=0;" edge="1" parent="1" target="sP8sjLfEsEtdyF7ky87n-6">
          <mxGeometry width="50" height="50" relative="1" as="geometry">
            <mxPoint x="200" y="470" as="sourcePoint" />
            <mxPoint x="300" y="420" as="targetPoint" />
          </mxGeometry>
        </mxCell>
      </root>
    </mxGraphModel>
  </diagram>
</mxfile>
